<svg width="168" height="31" viewBox="0 0 168 31" fill="none" xmlns="http://www.w3.org/2000/svg">
<path d="M22.9541 16.0466C21.4095 13.637 18.7789 12.1982 15.917 12.1982C13.0552 12.1982 10.4245 13.637 8.88022 16.0466L5.15834 21.8528C4.54082 22.816 4.25589 23.929 4.33419 25.0706C4.41249 26.2124 4.84696 27.2756 5.59044 28.1461C6.33445 29.0158 7.31756 29.6103 8.43344 29.8654C9.54933 30.1205 10.6932 30.0115 11.7413 29.5509L11.8115 29.5197C14.4486 28.3837 17.4621 28.3941 20.0925 29.5509C20.771 29.8492 21.4899 30 22.2153 30C22.6097 30 23.0064 29.9552 23.3995 29.8657C24.5154 29.6108 25.4985 29.0164 26.2428 28.1464C26.9865 27.2767 27.4213 26.2132 27.4998 25.0711C27.5784 23.929 27.2935 22.8163 26.676 21.8526L22.9541 16.0466Z" fill="#9A6D4A"/>
<path d="M6.16082 16.039C7.26807 15.6137 8.10923 14.7215 8.52929 13.5265C8.92919 12.3894 8.89645 11.1057 8.43685 9.91148C7.97698 8.71808 7.14053 7.74388 6.08147 7.168C4.969 6.56331 3.74679 6.46484 2.64138 6.89092C0.41747 7.74597 -0.603088 10.4942 0.366664 13.0185C1.14131 15.0276 2.94804 16.2959 4.77468 16.2959C5.24109 16.2959 5.70881 16.2132 6.16082 16.039Z" fill="#9A6D4A"/>
<path d="M13.3825 11.4901C16.1627 11.4901 18.4245 8.91319 18.4245 5.74571C18.4245 2.57745 16.1627 0 13.3825 0C10.6026 0 8.341 2.57745 8.341 5.74571C8.341 8.91319 10.6026 11.4901 13.3825 11.4901Z" fill="#9A6D4A"/>
<path d="M22.0901 12.9014H22.0904C22.518 13.0433 22.9543 13.1112 23.3888 13.1112C25.4163 13.1112 27.3922 11.6355 28.1462 9.36755C28.5804 8.06207 28.5518 6.68168 28.0658 5.48095C27.5572 4.22391 26.6147 3.31151 25.4116 2.91161C24.2082 2.51172 22.9069 2.67854 21.747 3.38091C20.639 4.05185 19.79 5.1405 19.3563 6.44599C18.441 9.19995 19.6674 12.0958 22.0901 12.9014Z" fill="#9A6D4A"/>
<path d="M32.7082 12.231L32.7074 12.2302C30.7901 10.8139 27.9228 11.4278 26.3151 13.5993C24.7089 15.7719 24.9601 18.6927 26.8745 20.11C27.5726 20.6272 28.3976 20.8744 29.2419 20.8744C30.7134 20.8744 32.2444 20.1233 33.2678 18.7422C34.8737 16.5696 34.6228 13.6488 32.7082 12.231Z" fill="#9A6D4A"/>
<path d="M46.8997 24C46.709 24 46.553 23.9393 46.4317 23.818C46.3104 23.6967 46.2497 23.5407 46.2497 23.35V6.45C46.2497 6.25933 46.3104 6.10333 46.4317 5.982C46.553 5.86067 46.709 5.8 46.8997 5.8H53.4257C55.159 5.8 56.6064 6.07733 57.7677 6.632C58.929 7.16933 59.813 7.96667 60.4197 9.024C61.0437 10.064 61.373 11.3553 61.4077 12.898C61.425 13.6607 61.4337 14.328 61.4337 14.9C61.4337 15.472 61.425 16.1307 61.4077 16.876C61.3557 18.488 61.035 19.8227 60.4457 20.88C59.8564 21.9373 58.9897 22.726 57.8457 23.246C56.7017 23.7487 55.2717 24 53.5557 24H46.8997ZM50.3837 20.646H53.4257C54.2924 20.646 55.003 20.516 55.5577 20.256C56.1124 19.996 56.5197 19.5887 56.7797 19.034C57.057 18.462 57.2044 17.7253 57.2217 16.824C57.239 16.3213 57.2477 15.8707 57.2477 15.472C57.265 15.0733 57.265 14.6747 57.2477 14.276C57.2477 13.8773 57.239 13.4353 57.2217 12.95C57.187 11.65 56.849 10.6967 56.2077 10.09C55.5837 9.466 54.613 9.154 53.2957 9.154H50.3837V20.646ZM70.5853 24.26C69.1466 24.26 67.9419 24.026 66.9713 23.558C66.0006 23.0727 65.2553 22.388 64.7353 21.504C64.2326 20.62 63.9553 19.5887 63.9033 18.41C63.8859 18.0633 63.8773 17.6733 63.8773 17.24C63.8773 16.7893 63.8859 16.3993 63.9033 16.07C63.9553 14.874 64.2499 13.8427 64.7873 12.976C65.3246 12.092 66.0786 11.416 67.0493 10.948C68.0199 10.4627 69.1986 10.22 70.5853 10.22C71.9546 10.22 73.1246 10.4627 74.0953 10.948C75.0659 11.416 75.8199 12.092 76.3573 12.976C76.8946 13.8427 77.1893 14.874 77.2413 16.07C77.2759 16.3993 77.2933 16.7893 77.2933 17.24C77.2933 17.6733 77.2759 18.0633 77.2413 18.41C77.1893 19.5887 76.9033 20.62 76.3833 21.504C75.8806 22.388 75.1439 23.0727 74.1733 23.558C73.2026 24.026 72.0066 24.26 70.5853 24.26ZM70.5853 21.4C71.4346 21.4 72.0759 21.14 72.5093 20.62C72.9426 20.0827 73.1766 19.3027 73.2113 18.28C73.2286 18.02 73.2373 17.6733 73.2373 17.24C73.2373 16.8067 73.2286 16.46 73.2113 16.2C73.1766 15.1947 72.9426 14.4233 72.5093 13.886C72.0759 13.3487 71.4346 13.08 70.5853 13.08C69.7359 13.08 69.0859 13.3487 68.6353 13.886C68.2019 14.4233 67.9679 15.1947 67.9333 16.2C67.9159 16.46 67.9073 16.8067 67.9073 17.24C67.9073 17.6733 67.9159 18.02 67.9333 18.28C67.9679 19.3027 68.2019 20.0827 68.6353 20.62C69.0859 21.14 69.7359 21.4 70.5853 21.4ZM86.3565 29.72C85.0738 29.72 84.0078 29.5467 83.1585 29.2C82.3092 28.8707 81.6332 28.4633 81.1305 27.978C80.6452 27.51 80.2985 27.042 80.0905 26.574C79.8825 26.106 79.7698 25.742 79.7525 25.482C79.7352 25.2913 79.7958 25.1353 79.9345 25.014C80.0732 24.8927 80.2292 24.832 80.4025 24.832H83.1845C83.3405 24.832 83.4705 24.8667 83.5745 24.936C83.6958 25.0227 83.7912 25.1613 83.8605 25.352C83.9472 25.56 84.0685 25.7767 84.2245 26.002C84.3805 26.2447 84.6145 26.444 84.9265 26.6C85.2558 26.756 85.6892 26.834 86.2265 26.834C86.8332 26.834 87.3358 26.7473 87.7345 26.574C88.1332 26.4007 88.4278 26.106 88.6185 25.69C88.8265 25.274 88.9305 24.7107 88.9305 24V22.258C88.5145 22.7087 87.9858 23.0813 87.3445 23.376C86.7205 23.6707 85.9492 23.818 85.0305 23.818C84.1292 23.818 83.3318 23.6793 82.6385 23.402C81.9625 23.1073 81.3992 22.7 80.9485 22.18C80.4978 21.6427 80.1512 21.0013 79.9085 20.256C79.6658 19.5107 79.5272 18.67 79.4925 17.734C79.4752 17.266 79.4752 16.8067 79.4925 16.356C79.5272 15.4547 79.6658 14.6313 79.9085 13.886C80.1512 13.1407 80.4978 12.4993 80.9485 11.962C81.3992 11.4073 81.9625 10.9827 82.6385 10.688C83.3318 10.376 84.1292 10.22 85.0305 10.22C85.9838 10.22 86.7985 10.402 87.4745 10.766C88.1505 11.13 88.7052 11.5807 89.1385 12.118V11.13C89.1385 10.9567 89.1992 10.8093 89.3205 10.688C89.4418 10.5493 89.5892 10.48 89.7625 10.48H92.3105C92.4838 10.48 92.6312 10.5493 92.7525 10.688C92.8912 10.8093 92.9605 10.9567 92.9605 11.13L92.9865 23.636C92.9865 24.936 92.7352 26.0367 92.2325 26.938C91.7298 27.8393 90.9845 28.524 89.9965 28.992C89.0258 29.4773 87.8125 29.72 86.3565 29.72ZM86.2265 20.776C86.8505 20.776 87.3532 20.6373 87.7345 20.36C88.1332 20.0653 88.4278 19.7013 88.6185 19.268C88.8092 18.8173 88.9132 18.3493 88.9305 17.864C88.9478 17.6733 88.9565 17.4047 88.9565 17.058C88.9565 16.694 88.9478 16.4167 88.9305 16.226C88.9132 15.7407 88.8092 15.2813 88.6185 14.848C88.4278 14.3973 88.1332 14.0333 87.7345 13.756C87.3532 13.4787 86.8505 13.34 86.2265 13.34C85.5678 13.34 85.0478 13.4873 84.6665 13.782C84.2852 14.0593 84.0078 14.432 83.8345 14.9C83.6612 15.368 83.5572 15.8793 83.5225 16.434C83.5052 16.85 83.5052 17.2573 83.5225 17.656C83.5572 18.228 83.6612 18.748 83.8345 19.216C84.0078 19.684 84.2852 20.0653 84.6665 20.36C85.0478 20.6373 85.5678 20.776 86.2265 20.776Z" fill="#333333"/>
<path d="M105.693 24C105.467 24 105.285 23.9393 105.147 23.818C105.025 23.6967 104.939 23.5233 104.887 23.298L101.533 6.606C101.515 6.53667 101.507 6.476 101.507 6.424C101.507 6.372 101.507 6.33733 101.507 6.32C101.507 6.18133 101.559 6.06 101.663 5.956C101.767 5.852 101.888 5.8 102.027 5.8H103.379C103.743 5.8 103.951 5.94733 104.003 6.242L106.655 19.658L109.463 10.454C109.515 10.298 109.601 10.1593 109.723 10.038C109.861 9.89933 110.052 9.83 110.295 9.83H111.257C111.517 9.83 111.707 9.89933 111.829 10.038C111.95 10.1593 112.028 10.298 112.063 10.454L114.897 19.658L117.523 6.242C117.575 5.94733 117.791 5.8 118.173 5.8H119.525C119.663 5.8 119.785 5.852 119.889 5.956C119.993 6.06 120.045 6.18133 120.045 6.32C120.045 6.33733 120.036 6.372 120.019 6.424C120.019 6.476 120.019 6.53667 120.019 6.606L116.665 23.298C116.613 23.5233 116.517 23.6967 116.379 23.818C116.257 23.9393 116.084 24 115.859 24H114.845C114.602 24 114.411 23.9393 114.273 23.818C114.134 23.6967 114.039 23.5407 113.987 23.35L110.763 13.444L107.565 23.35C107.495 23.5407 107.391 23.6967 107.253 23.818C107.131 23.9393 106.949 24 106.707 24H105.693ZM128.087 24.26C126.769 24.26 125.669 24.0087 124.785 23.506C123.901 23.0033 123.225 22.31 122.757 21.426C122.289 20.5247 122.029 19.502 121.977 18.358C121.959 18.0633 121.951 17.6907 121.951 17.24C121.951 16.772 121.959 16.3993 121.977 16.122C122.029 14.9607 122.289 13.938 122.757 13.054C123.242 12.17 123.927 11.4767 124.811 10.974C125.695 10.4713 126.787 10.22 128.087 10.22C129.387 10.22 130.479 10.4713 131.363 10.974C132.247 11.4767 132.923 12.17 133.391 13.054C133.876 13.938 134.145 14.9607 134.197 16.122C134.214 16.3993 134.223 16.772 134.223 17.24C134.223 17.6907 134.214 18.0633 134.197 18.358C134.145 19.502 133.885 20.5247 133.417 21.426C132.949 22.31 132.273 23.0033 131.389 23.506C130.505 24.0087 129.404 24.26 128.087 24.26ZM128.087 22.258C129.161 22.258 130.019 21.92 130.661 21.244C131.302 20.5507 131.649 19.5453 131.701 18.228C131.718 17.968 131.727 17.6387 131.727 17.24C131.727 16.8413 131.718 16.512 131.701 16.252C131.649 14.9347 131.302 13.938 130.661 13.262C130.019 12.5687 129.161 12.222 128.087 12.222C127.012 12.222 126.145 12.5687 125.487 13.262C124.845 13.938 124.507 14.9347 124.473 16.252C124.455 16.512 124.447 16.8413 124.447 17.24C124.447 17.6387 124.455 17.968 124.473 18.228C124.507 19.5453 124.845 20.5507 125.487 21.244C126.145 21.92 127.012 22.258 128.087 22.258ZM138.076 24C137.903 24 137.756 23.948 137.634 23.844C137.53 23.7227 137.478 23.5753 137.478 23.402V11.104C137.478 10.9307 137.53 10.7833 137.634 10.662C137.756 10.5407 137.903 10.48 138.076 10.48H139.272C139.446 10.48 139.593 10.5407 139.714 10.662C139.836 10.7833 139.896 10.9307 139.896 11.104V12.248C140.243 11.6587 140.72 11.2167 141.326 10.922C141.933 10.6273 142.661 10.48 143.51 10.48H144.55C144.724 10.48 144.862 10.5407 144.966 10.662C145.07 10.766 145.122 10.9047 145.122 11.078V12.144C145.122 12.3173 145.07 12.456 144.966 12.56C144.862 12.664 144.724 12.716 144.55 12.716H142.99C142.054 12.716 141.318 12.9933 140.78 13.548C140.243 14.0853 139.974 14.822 139.974 15.758V23.402C139.974 23.5753 139.914 23.7227 139.792 23.844C139.671 23.948 139.524 24 139.35 24H138.076ZM147.979 24C147.806 24 147.658 23.948 147.537 23.844C147.433 23.7227 147.381 23.5753 147.381 23.402V6.138C147.381 5.96467 147.433 5.826 147.537 5.722C147.658 5.60067 147.806 5.54 147.979 5.54H149.201C149.392 5.54 149.539 5.60067 149.643 5.722C149.747 5.826 149.799 5.96467 149.799 6.138V23.402C149.799 23.5753 149.747 23.7227 149.643 23.844C149.539 23.948 149.392 24 149.201 24H147.979ZM158.617 24.26C157.664 24.26 156.841 24.0953 156.147 23.766C155.454 23.4193 154.882 22.96 154.431 22.388C153.998 21.7987 153.669 21.1313 153.443 20.386C153.235 19.6407 153.114 18.852 153.079 18.02C153.062 17.7427 153.053 17.4827 153.053 17.24C153.053 16.9973 153.062 16.7373 153.079 16.46C153.114 15.6453 153.235 14.8653 153.443 14.12C153.669 13.3747 153.998 12.7073 154.431 12.118C154.882 11.5287 155.454 11.0693 156.147 10.74C156.841 10.3933 157.664 10.22 158.617 10.22C159.64 10.22 160.489 10.402 161.165 10.766C161.841 11.13 162.396 11.5807 162.829 12.118V6.138C162.829 5.96467 162.881 5.826 162.985 5.722C163.107 5.60067 163.254 5.54 163.427 5.54H164.675C164.849 5.54 164.987 5.60067 165.091 5.722C165.213 5.826 165.273 5.96467 165.273 6.138V23.402C165.273 23.5753 165.213 23.7227 165.091 23.844C164.987 23.948 164.849 24 164.675 24H163.505C163.315 24 163.167 23.948 163.063 23.844C162.959 23.7227 162.907 23.5753 162.907 23.402V22.31C162.474 22.8647 161.911 23.3327 161.217 23.714C160.524 24.078 159.657 24.26 158.617 24.26ZM159.163 22.154C160.03 22.154 160.723 21.9547 161.243 21.556C161.763 21.1573 162.153 20.6547 162.413 20.048C162.673 19.424 162.812 18.7913 162.829 18.15C162.847 17.8727 162.855 17.5433 162.855 17.162C162.855 16.7633 162.847 16.4253 162.829 16.148C162.812 15.5413 162.665 14.9433 162.387 14.354C162.127 13.7647 161.729 13.2793 161.191 12.898C160.671 12.5167 159.995 12.326 159.163 12.326C158.279 12.326 157.577 12.5253 157.057 12.924C156.537 13.3053 156.165 13.8167 155.939 14.458C155.714 15.082 155.584 15.758 155.549 16.486C155.532 16.9887 155.532 17.4913 155.549 17.994C155.584 18.722 155.714 19.4067 155.939 20.048C156.165 20.672 156.537 21.1833 157.057 21.582C157.577 21.9633 158.279 22.154 159.163 22.154Z" fill="#666666"/>
</svg>
