<svg width="16" height="15" viewBox="0 0 16 15" fill="none" xmlns="http://www.w3.org/2000/svg">
<path d="M11.7209 0H4.84161C2.60269 0 0.78125 1.82144 0.78125 4.06036V10.9397C0.78125 13.1785 2.60269 15 4.84161 15H11.721C13.9598 15 15.7812 13.1785 15.7812 10.9397V4.06036C15.7812 1.82144 13.9598 0 11.7209 0ZM8.28124 11.6014C6.01966 11.6014 4.1798 9.76156 4.1798 7.49999C4.1798 5.23841 6.01966 3.39855 8.28124 3.39855C10.5428 3.39855 12.3827 5.23841 12.3827 7.49999C12.3827 9.76156 10.5428 11.6014 8.28124 11.6014ZM12.4808 4.3658C11.8124 4.3658 11.2688 3.82221 11.2688 3.15387C11.2688 2.48554 11.8124 1.94183 12.4808 1.94183C13.1491 1.94183 13.6928 2.48554 13.6928 3.15387C13.6928 3.82221 13.1491 4.3658 12.4808 4.3658Z" fill="white"/>
<path d="M8.28124 4.27791C6.50466 4.27791 5.05916 5.72329 5.05916 7.49999C5.05916 9.27656 6.50466 10.7221 8.28124 10.7221C10.0579 10.7221 11.5033 9.27656 11.5033 7.49999C11.5033 5.72329 10.0579 4.27791 8.28124 4.27791Z" fill="white"/>
<path d="M12.4808 2.82131C12.2974 2.82131 12.1482 2.97054 12.1482 3.15387C12.1482 3.33721 12.2974 3.48644 12.4808 3.48644C12.6642 3.48644 12.8134 3.33732 12.8134 3.15387C12.8134 2.97042 12.6642 2.82131 12.4808 2.82131Z" fill="white"/>
</svg>
