<svg width="16" height="13" viewBox="0 0 16 13" fill="none" xmlns="http://www.w3.org/2000/svg">
<path d="M15.7812 1.44281C15.2234 1.6875 14.6291 1.84969 14.0094 1.92844C14.6469 1.54781 15.1334 0.949687 15.3622 0.22875C14.7678 0.583125 14.1116 0.833438 13.4122 0.973125C12.8478 0.372188 12.0434 0 11.1659 0C9.46344 0 8.09281 1.38188 8.09281 3.07594C8.09281 3.31969 8.11344 3.55406 8.16406 3.77719C5.6075 3.6525 3.34531 2.42719 1.82562 0.560625C1.56031 1.02094 1.40469 1.54781 1.40469 2.115C1.40469 3.18 1.95312 4.12406 2.77062 4.67062C2.27656 4.66125 1.79187 4.51781 1.38125 4.29187C1.38125 4.30125 1.38125 4.31344 1.38125 4.32562C1.38125 5.82 2.44719 7.06125 3.845 7.34719C3.59469 7.41563 3.32187 7.44844 3.03875 7.44844C2.84187 7.44844 2.64312 7.43719 2.45656 7.39594C2.855 8.61375 3.98563 9.50906 5.33 9.53813C4.28375 10.3566 2.95531 10.8497 1.51719 10.8497C1.265 10.8497 1.02312 10.8384 0.78125 10.8075C2.14344 11.6859 3.75781 12.1875 5.49875 12.1875C11.1575 12.1875 14.2513 7.5 14.2513 3.43687C14.2513 3.30094 14.2466 3.16969 14.24 3.03938C14.8503 2.60625 15.3631 2.06531 15.7812 1.44281Z" fill="white"/>
</svg>
