<svg width="16" height="15" viewBox="0 0 16 15" fill="none" xmlns="http://www.w3.org/2000/svg">
<path d="M15.7775 15L15.7813 14.9994V9.49817C15.7813 6.80692 15.2019 4.73379 12.0556 4.73379C10.5431 4.73379 9.52813 5.56379 9.11375 6.35067H9.07V4.98504H6.08688V14.9994H9.19313V10.0407C9.19313 8.73505 9.44063 7.47254 11.0575 7.47254C12.6506 7.47254 12.6744 8.96254 12.6744 10.1244V15H15.7775Z" fill="white"/>
<path d="M1.02874 4.9856H4.13874V15H1.02874V4.9856Z" fill="white"/>
<path d="M2.5825 0C1.58812 0 0.78125 0.806875 0.78125 1.80125C0.78125 2.79562 1.58812 3.61937 2.5825 3.61937C3.57687 3.61937 4.38375 2.79562 4.38375 1.80125C4.38312 0.806875 3.57625 0 2.5825 0Z" fill="white"/>
</svg>
