<svg width="16" height="22" viewBox="0 0 16 22" fill="none" xmlns="http://www.w3.org/2000/svg">
<path d="M7.99967 0C3.58886 0 0 3.63349 0 8.0996C0 9.26453 0.235506 10.3768 0.699626 11.4057C2.69977 15.8369 6.53459 20.5154 7.66253 21.8435C7.74704 21.9428 7.87024 22 7.99989 22C8.12954 22 8.25274 21.9428 8.33725 21.8435C9.46475 20.5156 13.2996 15.8374 15.3004 11.4057C15.7647 10.3768 16 9.26453 16 8.0996C15.9996 3.63349 12.4107 0 7.99967 0ZM7.99967 12.3066C5.70842 12.3066 3.84416 10.4191 3.84416 8.09937C3.84416 5.77941 5.70842 3.89197 7.99967 3.89197C10.2909 3.89197 12.1552 5.77941 12.1552 8.09937C12.1554 10.4191 10.2911 12.3066 7.99967 12.3066Z" fill="white"/>
</svg>
